<svg xmlns="http://www.w3.org/2000/svg" width="47.04" height="72.944" viewBox="0 0 47.04 72.944"><defs><style>.a{fill:#b28b67;}.b{fill:#34495e;}.c{fill:rgba(0,0,0,0.1);}.d{fill:#e8ca6f;}.e{fill:#dde3e9;}</style></defs><g transform="translate(21.106 6.602)"><path class="a" d="M0,12,1.377,5.67a4.418,4.418,0,0,1-1.2-3.2C.426-1.048,5.391-.274,6.357,1.5s.851,6.279-.4,6.6a4.458,4.458,0,0,1-2.638-.825L4,12Z" transform="translate(-0.358 -0.419)"/></g><path class="b" d="M25.108,5.862c-.539-.088-1.989-.148-2.256-.148-.171,0-.356.039-.457-.117-.083-.128-.053-.343-.077-.491-.029-.172-.07-.342-.111-.511a5.173,5.173,0,0,0-.543-1.37,4.233,4.233,0,0,0-2.012-1.808A6.5,6.5,0,0,0,16.6,1a13.488,13.488,0,0,0-3.123.785,6.591,6.591,0,0,1-3.05.292A7.343,7.343,0,0,1,7.723.829,5.059,5.059,0,0,0,4.739.012,5.772,5.772,0,0,0,2.018,1.036,4.418,4.418,0,0,0,.263,3.013,2.689,2.689,0,0,0,.51,5.767,4.91,4.91,0,0,0,4.538,7.227,7.746,7.746,0,0,0,6.93,6.791,23.2,23.2,0,0,0,9.812,5.329a7.532,7.532,0,0,1,1.409-.56,1.581,1.581,0,0,1,1.373.091,6.5,6.5,0,0,0,1.384.786,4.491,4.491,0,0,0,1.561.278A15.488,15.488,0,0,0,18.6,5.381,6.329,6.329,0,0,1,21.133,5.2c.349.07.858.215.984.575-2.121.382-2.953,2.985-2.356,4.9.323,1.031,2.262,2.237,3.016,1.695.478-.344.188-.795,0-1.092-.359-.57-.482-1.3.183-1.7.574-.342,1.177.471,1.188.47a7.369,7.369,0,0,0,2.459-1.894c.926.054,1.067-.552.845-1.047A4.16,4.16,0,0,0,25.108,5.862Z" transform="translate(0 0)"/><g transform="translate(1.748 28.194)"><path class="a" d="M17.627.06C14.4,2.7,15.709,25.922,15.494,26.214,15.351,26.408.1,29.477.1,29.477l.445,1.8s17.848-.826,18.884-2.151c1.483-1.9,3.608-21.26,3.608-21.26Z" transform="matrix(0.574, -0.819, 0.819, 0.574, 5.801, 19.136)"/><path class="c" d="M17.627.06C14.4,2.7,15.709,25.922,15.494,26.214,15.351,26.408.1,29.477.1,29.477l.445,1.8s17.848-.826,18.884-2.151c1.483-1.9,3.608-21.26,3.608-21.26Z" transform="matrix(0.574, -0.819, 0.819, 0.574, 5.801, 19.136)"/><path class="b" d="M.1,28.772l.784,2.9c8.875,1.052,14.718-.192,16.77-2.148s3.618-21.2,3.618-21.2L15.482.053C7.789,5.86,12.452,24.973,12.257,25.41S7.384,26.175.1,28.772Z" transform="matrix(0.574, -0.819, 0.819, 0.574, 6.835, 17.393)"/><g transform="translate(30.42 31.445) rotate(20)"><path class="b" d="M.66,1.037a.294.294,0,0,0-.378.2L0,2.248A9.79,9.79,0,0,0,.133,3.432H8.455s.324-1.09-.374-1.177S6.919,2.1,6.919,2.1L3.051.345a.147.147,0,0,0-.2.08l-.249.613a3.3,3.3,0,0,1-1.051.307Z" transform="translate(0.148 2.568)"/></g><path class="a" d="M17.47,0,8.659,21,0,38.747H2.043L24.4,0Z" transform="translate(0.765 4.731)"/><g transform="translate(0 37.989)"><path class="b" d="M.762,1.126a.341.341,0,0,0-.437.228L0,2.491A10.781,10.781,0,0,0,.153,3.825h9.6S10.131,2.6,9.325,2.5s-1.34-.177-1.34-.177L3.521.347a.171.171,0,0,0-.227.09l-.287.691a3.88,3.88,0,0,1-1.213.346Z" transform="translate(0.17 2.935)"/></g><path class="b" d="M0,35.059l4.54.845C8.05,30.782,22.739,9.778,24.35,0H14.244C8.865,7.068,3.346,29.852,0,35.059Z" transform="translate(1.547 4.731)"/></g><g transform="translate(2.089 15.183)"><path class="a" d="M5.413,19.651a1.007,1.007,0,0,0-1.3-.577c-1.431.353-2.644,1.258-3.978.037-.164-.15-.284-.619.275-.86A16.13,16.13,0,0,0,4.2,16.093Q4.88,15.2,8.43,5.916l3.489.687Q6.655,16.339,6.273,16.923c-.573.876-.038,2.482.159,3.328a1.082,1.082,0,0,1-.243.03C5.77,20.282,5.6,19.966,5.413,19.651ZM33.372,5.175l6.169-2.69A14.607,14.607,0,0,1,42.672.048c.3-.1.815-.124.266.672s-1.09,1.657-.87,1.935.854-.029,1.105.424q.251.453-3.211,1.085L35.342,7.68Z" transform="translate(0 7.944)"/><path class="d" d="M0,.377,1.445,0C4.908,2.8,6.859,10.072,9.073,10.864c2.094.749,4.869-.4,8.155-1.9l1.24,2.213c-2.792,3.579-9.113,6.95-11.914,5.586C2.077,14.582.3,5.553,0,.377Z" transform="matrix(0.996, 0.087, -0.087, 0.996, 21.435, 0.526)"/><path class="e" d="M0,19.268H13.027c.6,0,.483-.853.4-1.284-.993-4.969-4.87-10.326-4.87-17.4L4.8,0C1.689,4.962.614,11.071,0,19.268Z" transform="translate(14.983)"/><path class="d" d="M0,23.976Q2.638,7.733,15.281,0h1.488s5.06,17.122,2.79,22.817H7.832a42.214,42.214,0,0,1,1.6-8.58,65.559,65.559,0,0,1-6.7,10.271Z" transform="translate(4.257)"/></g></svg>