<svg xmlns="http://www.w3.org/2000/svg" width="56" height="58.453" viewBox="0 0 56 58.453"><defs><style>.a{fill:#b28b67;}.b{fill:#34495e;}.c{fill:#e8ca6f;}.d{fill:#dde3e9;}.e{fill:rgba(0,0,0,0.1);}</style></defs><g transform="translate(20.333)"><g transform="translate(0.877 1.282)"><path class="a" d="M0,12,1.377,5.67a4.418,4.418,0,0,1-1.2-3.2C.426-1.048,5.391-.274,6.357,1.5s.851,6.279-.4,6.6a4.458,4.458,0,0,1-2.638-.825L4,12Z" transform="translate(-0.211 -0.234)"/></g><path class="b" d="M1.736,7.651c-.5-2.2-1.932-3.7-1.714-4.687A1.689,1.689,0,0,1,1.187,1.739S1.676-.212,4.343.08,8.637,1.463,7.934,3.865a5.709,5.709,0,0,0-2.5.164c-.513.188-.734,1.165-.734,1.165H4.208s-.71-1.16-1.4-.852-.314,1.493-.314,1.493l-.24,1.816Z" transform="translate(0 -0.05)"/></g><g transform="translate(0 27.098)"><g transform="translate(0 6.95)"><path class="c" d="M14,20H10A10,10,0,1,1,10,0h4a10,10,0,1,1,0,20ZM8.572,4.516a4,4,0,0,0-4,4v2.968a4,4,0,0,0,4,4h6.857a4,4,0,0,0,4-4V8.516a4,4,0,0,0-4-4Z" transform="translate(7 0)"/></g><path class="a" d="M11.026,19.225a85.473,85.473,0,0,1-6.67-8.8C2.369,7.157.742,4.247.229,3.136-1,.486,3.047-.755,3.962.481q2.077,2.807,8.871,17.663Z" transform="translate(36.833 7.18)"/><path class="b" d="M6.293,18.9.178,3.72C-1.13.953,5.186-.866,6.147.422c2.182,2.923,7.369,14.455,8.019,15.325Z" transform="translate(34.833 6.359)"/><path class="a" d="M.216,17.306A107.166,107.166,0,0,1,.137,4.681c.1-.959.2-1.887.3-2.757.3-2.587,5.105-2.538,4.707-.08-.993,6.122-2.726,14.7-2.851,15.445C2.114,18.328.312,18.614.216,17.306Z" transform="translate(35.562 8.626) rotate(39)"/><g transform="translate(24.048 20.845) rotate(30)"><path class="b" d="M1,1.388a.449.449,0,0,0-.576.3L0,3.2A14.426,14.426,0,0,0,.2,4.973H12.867s.494-1.632-.57-1.762-1.767-.235-1.767-.235L4.644.351a.225.225,0,0,0-.3.12l-.378.918a5.089,5.089,0,0,1-1.6.459Z" transform="translate(0 -0.332)"/></g><g transform="translate(46 21.95)"><path class="b" d="M.746,1.1a.334.334,0,0,0-.428.222L0,2.431a10.414,10.414,0,0,0,.15,1.3h9.4s.366-1.194-.423-1.29-1.312-.172-1.312-.172L3.447.346a.168.168,0,0,0-.222.087l-.281.672a3.817,3.817,0,0,1-1.188.336Z" transform="translate(0.167 2.845)"/></g><path class="b" d="M15.95,10.836S8.326,9.612,5.736,9.162C.816,8.306-.619,5.7.229,0H9.3c1.8.512,15.039,6.338,15.039,6.338,1.588.777,1.292,3.069,1,3.824-.018.046-8.031,13.568-8.031,13.568L9.889,19.071l6.075-7.686S16.2,10.907,15.95,10.836Z" transform="translate(16.861)"/></g><g transform="translate(7.694 9.471)"><path class="a" d="M.2,14.26c-.186-.113-.39-.539.1-.872a15.693,15.693,0,0,0,3.232-2.758C4.028,9.654,5.691.133,5.691.133L9.174.146S5.948,10.413,5.691,11.041c-.386.942.431,2.377.779,3.149-.55.243-.806-.067-1.085-.377a1,1,0,0,0-1.364-.321c-.947.434-1.729,1.124-2.662,1.124A2.187,2.187,0,0,1,.2,14.26ZM30.192,5.017,24.928,2.864,26.1,0l5.316,3.849a14.424,14.424,0,0,1,3.614,1.432c.229.205.5.621-.443.549s-1.948-.105-2.079.213.443.7.178,1.13a.126.126,0,0,1-.115.061Q32.108,7.234,30.192,5.017Z" transform="translate(0 15.729)"/><path class="c" d="M0,.368,1.414,0c5.724,4.071,8.674,12.6,15.608,16.641l-1.4,2.058C4.17,18.307.432,7.921,0,.368Z" transform="matrix(0.996, 0.087, -0.087, 0.996, 15.621, 1.087)"/><path class="d" d="M0,18.732H12.752c.583,0,.473-.83.389-1.248C12.168,12.653,8.374,7.446,8.374.569L4.7,0C1.653,4.824.6,10.764,0,18.732Z" transform="translate(9.306 0.577)"/><path class="c" d="M.017,26.211A34.84,34.84,0,0,1,6.339,5.262a1.938,1.938,0,0,1-1.655-1C3.339,1.868,3.825.551,5.262.119S7.98.577,10.269.577A1.809,1.809,0,0,1,10.542.6l1.221.069s4.956,16.559,2.733,22.1H4.416a31.338,31.338,0,0,1-1.665,3.451Z" transform="translate(3.456)"/><path class="e" d="M3.767,6.005H0C.691,4.369,1.453,2.349,2.265,0a16.513,16.513,0,0,0,1.5,6Z" transform="translate(7.872 16.755)"/></g></svg>