<svg xmlns="http://www.w3.org/2000/svg" width="46.843" height="78.278" viewBox="0 0 46.843 78.278"><defs><style>.a{fill:#b28b67;}.b{fill:#34495e;}.c{fill:#e8ca6f;}.d{fill:#dde3e9;}</style></defs><g transform="translate(21.701)"><g transform="translate(0.022 0.391)"><path class="a" d="M0,14,1.574,6.614A5.217,5.217,0,0,1,.2,2.882c.286-4.1,5.96-3.2,7.064-1.13s.973,7.326-.454,7.7A5.02,5.02,0,0,1,3.8,8.485L4.572,14Z" transform="translate(0.38 -0.113)"/></g><path class="b" d="M3.974,8.883a25.606,25.606,0,0,1-.467-4.541,1.184,1.184,0,0,0-.966,2.021c-.273.386-.579.79-.93,1.207A3.971,3.971,0,0,1,.6,2.23,2.917,2.917,0,0,1,2.718.284,3.415,3.415,0,0,1,4.965.118,7.3,7.3,0,0,1,7.807.878c0,1.257-.243,1.63-2.318,1.6a3.833,3.833,0,0,0-1.31,1.344c0,.041.277,3.785,1.434,3.785s2.149-.74,2.66-.74c.372,0,.289.467.042.813-.2.286-1.194.561-1.194,1,0,.25.25.25.467.249.167,0,.316,0,.316.114,0,.434.138,1.25-.614,1.25S4.347,10.015,3.974,8.883Z"/></g><g transform="translate(9.102 31.278)"><path class="b" d="M0,0,7.13,25.087l5.2,18.49h3.794L10.6,0Z" transform="translate(11.173 0)"/><path class="b" d="M8.755,0c-.165,12.93-.727,19.983-.9,21.157S5.063,29.805,0,43.577H3.931q9.669-19.818,10.8-22.42C15.476,19.422,17.793,12.37,21.282,0Z" transform="translate(0.511)"/><g transform="translate(0 39)"><path class="b" d="M0,4.141.2,0h4.13A29.343,29.343,0,0,0,12,3.352v.789H4.523L1.967,3.746v.394Z" transform="translate(0 3.746)"/></g><g transform="translate(23 39)"><path class="b" d="M0,4.141.2,0h4.13A29.343,29.343,0,0,0,12,3.352v.789H4.523L1.967,3.746v.394Z" transform="translate(0 3.746)"/></g></g><g transform="translate(0 10.175)"><path class="a" d="M6.3,16.647a1.163,1.163,0,0,0-1.535-.6c-1.629.5-2.974,1.627-4.587.284-.2-.165-.366-.7.265-1.019A18.607,18.607,0,0,0,4.681,12.57C5.414,11.49,9.657,0,9.657,0L13.14.507s-5.609,12.2-6.014,12.9c-.608,1.056.107,2.9.386,3.87a1.178,1.178,0,0,1-.327.051C6.737,17.333,6.53,16.99,6.3,16.647ZM40.935,8.526,34.917,5.515,36.54,2.184,42.476,7.23a16.868,16.868,0,0,1,4.135,2.012c.252.265.542.785-.567.621s-2.284-.287-2.465.084.463.874.116,1.367a.145.145,0,0,1-.126.064Q43.032,11.379,40.935,8.526Z" transform="translate(0 15.391)"/><path class="c" d="M0,.9,2.088,0A49.184,49.184,0,0,0,18.4,19.073l-1.525,3.266C10.16,19.125,3.857,16.724.908,11.278-.082,9.45.132,3.179,0,.9Z" transform="matrix(0.996, 0.087, -0.087, 0.996, 24.294, 0.256)"/><path class="d" d="M0,21.354s9.274.986,14.6,0c.44-.081.509-.82.305-1.321C11.728,12.23,9.55,5.42,9.55,0A7.46,7.46,0,0,1,6.49.132C2.574,5.718.773,12.127,0,21.354Z" transform="translate(16.802 0.438)"/><path class="c" d="M4.443,42.616c.422-8.85,3.677-19.434,7.048-28.421C9,16.677,6.1,20.837,3.75,27.762L0,26.8A45.8,45.8,0,0,1,17.192.249L17.255.1h.15c.1-.068.154-.1.154-.1l-.006.1h1.632c.38,2.241,1.579,32.587,5.279,42.514Z" transform="translate(4.765)"/></g></svg>