<?xml version="1.0" encoding="UTF-8" standalone="no"?>
<svg
   xmlns:dc="http://purl.org/dc/elements/1.1/"
   xmlns:cc="http://creativecommons.org/ns#"
   xmlns:rdf="http://www.w3.org/1999/02/22-rdf-syntax-ns#"
   xmlns:svg="http://www.w3.org/2000/svg"
   xmlns="http://www.w3.org/2000/svg"
   version="1.1"
   id="svg180"
   xml:space="preserve"
   width="396.35278"
   height="106.79594"
   viewBox="0 0 396.3528 106.79595"><metadata
     id="metadata186"><rdf:RDF><cc:Work
         rdf:about=""><dc:format>image/svg+xml</dc:format><dc:type
           rdf:resource="http://purl.org/dc/dcmitype/StillImage" /><dc:title></dc:title></cc:Work></rdf:RDF></metadata><defs
     id="defs184"><clipPath
       clipPathUnits="userSpaceOnUse"
       id="clipPath196"><path
         d="M 0,1000 H 1000 V 0 H 0 Z"
         id="path194" /></clipPath></defs><g
     id="g188"
     transform="matrix(1.3333333,0,0,-1.3333333,-468.49016,720.06473)"><g
       id="g190"><g
         id="g192"
         clip-path="url(#clipPath196)"><g
           id="g198"
           transform="translate(435.7969,498.7178)"><path
             d="m 0,0 c 0,-15.19 -12.315,-27.506 -27.506,-27.506 -15.191,0 -27.506,12.316 -27.506,27.506 0,15.191 12.315,27.506 27.506,27.506 C -12.315,27.506 0,15.191 0,0"
             style="fill:#e8ca6f;fill-opacity:1;fill-rule:evenodd;stroke:none"
             id="path200" /></g><g
           id="g202"
           transform="translate(478.8086,514.0581)"><path
             d="m 0,0 0.003,0.009 0.37,0.839 H 1.634 V -5.267 L -9.314,-5.268 h -9.324 v 1.481 h 0.659 c 0.536,0 0.905,0.115 1.163,0.363 0.426,0.413 0.634,1.239 0.634,2.522 v 19.358 c 0,1.296 -0.203,2.099 -0.638,2.526 -0.251,0.241 -0.603,0.359 -1.075,0.359 h -0.743 v 1.481 h 9.794 v -1.481 h -0.764 c -0.445,0 -0.811,-0.127 -1.057,-0.366 -0.427,-0.42 -0.636,-1.246 -0.636,-2.524 V -3.43 l 5.344,-0.003 C -2.673,-3.433 -1.003,-2.47 0,0"
             style="fill:#e8ca6f;fill-opacity:1;fill-rule:nonzero;stroke:none"
             id="path204" /></g><g
           id="g206"
           transform="translate(487.0957,521.6963)"><path
             d="M 0,0 H 8.355 C 8.336,1.368 7.868,2.7 7.076,3.611 6.356,4.445 5.334,4.943 4.337,4.943 4.123,4.943 3.911,4.92 3.709,4.875 2.81,4.671 1.96,4.06 1.316,3.153 0.616,2.175 0.165,1.093 0,0 m -0.16,-1.894 c -0.055,-1.361 0.081,-2.7 0.394,-3.89 0.373,-1.397 0.999,-2.555 1.811,-3.349 0.917,-0.906 2.245,-1.446 3.555,-1.446 0.45,0 0.885,0.063 1.296,0.186 1.583,0.46 3.02,1.766 3.847,3.494 l 0.267,0.576 0.814,-0.414 c 0.046,-0.024 0.077,-0.042 0.105,-0.059 0.013,-0.008 0.021,-0.013 0.029,-0.017 l 0.009,-0.005 c 0.025,-0.014 0.044,-0.024 0.064,-0.036 0.028,-0.017 0.057,-0.032 0.096,-0.054 l 0.475,-0.248 -0.185,-0.51 c -0.909,-2.418 -2.845,-4.388 -5.054,-5.146 -0.794,-0.274 -1.643,-0.414 -2.524,-0.414 -0.984,0 -1.993,0.172 -3.001,0.509 -1.912,0.641 -3.523,1.787 -4.657,3.317 -1.471,1.979 -2.18,4.79 -1.899,7.52 0.214,2.085 0.977,4.066 2.149,5.578 1.592,2.041 4.048,3.312 6.568,3.403 0.1,0.005 0.189,0.005 0.285,0.005 2.103,0 4.161,-0.813 5.649,-2.232 1.632,-1.565 2.608,-3.861 2.608,-6.144 v -0.624 z"
             style="fill:#e8ca6f;fill-opacity:1;fill-rule:nonzero;stroke:none"
             id="path208" /></g><g
           id="g210"
           transform="translate(508.9609,533.9272)"><path
             d="M 0,0 V -5.475 H 3.512 V -7.483 H 0.07 l 0.005,-13.214 c 0,-0.628 0,-2.1 0.494,-2.51 0.108,-0.092 0.224,-0.132 0.379,-0.132 0.145,0 0.318,0.035 0.514,0.104 0.111,0.037 0.324,0.123 0.732,0.323 l 0.649,0.313 0.452,-1.446 -0.454,-0.249 c -0.295,-0.153 -0.653,-0.315 -1.127,-0.513 -0.701,-0.286 -1.75,-0.665 -2.783,-0.665 -0.652,0 -1.235,0.152 -1.732,0.452 -1.445,0.883 -1.564,2.796 -1.564,4.518 v 3.741 c 0,2.94 0.008,7.57 0.012,9.282 h -2.751 v 1.649 l 0.486,0.105 c 0.813,0.189 3.568,1.128 4.722,5.27 L -1.771,0 Z"
             style="fill:#e8ca6f;fill-opacity:1;fill-rule:nonzero;stroke:none"
             id="path212" /></g><g
           id="g214"
           transform="translate(530.3252,513.7134)"><path
             d="m 0,0 c -0.213,-1.45 -1.056,-2.775 -2.312,-3.638 -1.524,-1.061 -3.254,-1.599 -5.14,-1.599 -0.867,0 -1.851,0.093 -2.925,0.278 -0.94,0.161 -3.483,0.839 -3.509,0.845 -0.293,0.075 -0.395,-0.116 -0.395,-0.116 h -1.412 v 6.334 h 1.478 l 0.115,-0.31 c 0.349,-0.934 0.803,-1.827 1.35,-2.654 0.234,-0.35 0.498,-0.717 0.82,-1.016 l 0.005,-0.004 c 0.318,-0.309 0.746,-0.596 1.276,-0.854 0.994,-0.49 2.115,-0.75 3.243,-0.75 1.026,0 1.873,0.26 2.517,0.774 0.575,0.46 0.895,1.097 0.899,1.791 0.009,0.785 -0.365,1.547 -1.028,2.093 -0.925,0.771 -2.516,1.421 -3.92,1.995 -3.197,1.318 -6.822,2.81 -6.77,6.162 0.022,1.23 0.496,2.404 1.333,3.306 0.523,0.553 1.202,1.058 1.911,1.424 1.066,0.561 2.36,0.894 3.85,0.986 0.259,0.014 0.513,0.02 0.762,0.02 1.448,0 2.826,-0.218 4.308,-0.684 0.106,-0.033 0.28,-0.098 0.355,-0.115 0.119,-0.028 0.182,-0.018 0.21,-0.009 0.115,0.035 0.159,0.118 0.159,0.118 h 1.374 V 12.71 c -0.002,0 -0.002,-3.807 -0.002,-3.807 h -1.484 l -0.121,0.295 c -0.305,0.744 -1.157,2.223 -1.898,2.949 -0.194,0.192 -0.411,0.364 -0.668,0.526 -0.779,0.47 -1.502,0.672 -2.417,0.676 -1.489,0 -3.276,-0.745 -3.276,-2.418 0,-1.947 2.809,-3.053 5.289,-4.029 C -4.171,6.174 -2.402,5.391 -1.129,3.835 -0.214,2.766 0.187,1.403 0,0"
             style="fill:#e8ca6f;fill-opacity:1;fill-rule:nonzero;stroke:none"
             id="path216" /></g><g
           id="g218"
           transform="translate(562.0059,524.2002)"><path
             d="m 0,0 3.84,-18.009 c 0.255,-1.196 0.614,-1.922 1.098,-2.22 0.294,-0.187 0.633,-0.229 1.076,-0.134 l 0.693,0.147 0.294,-1.379 -9.125,-1.945 -0.294,1.379 0.694,0.148 c 0.445,0.095 0.75,0.274 0.935,0.551 0.317,0.468 0.348,1.278 0.093,2.476 l -3.684,17.275 -4.418,-22.367 -1.544,-0.329 -0.225,0.299 -12.487,16.562 3.426,-15.98 0.02,-0.082 c 0.325,-1.341 1.101,-1.983 2.132,-1.763 l 0.689,0.146 0.294,-1.378 -6.623,-1.412 -0.293,1.378 0.688,0.148 c 1.032,0.219 1.479,1.123 1.229,2.478 l -0.005,0.021 c -0.003,0.022 -0.008,0.044 -0.012,0.065 l -4.099,19.23 c -0.449,1.702 -1.176,1.795 -1.896,1.642 l -0.698,-0.149 -0.294,1.379 6.238,1.33 0.225,-0.313 L -9.511,-17.805 -5.396,3.101 1.421,4.554 1.715,3.176 1.063,3.037 C 0.604,2.939 0.276,2.751 0.089,2.476 -0.229,2.001 -0.258,1.19 0,0"
             style="fill:#34495e;fill-opacity:1;fill-rule:nonzero;stroke:none"
             id="path220" /></g><g
           id="g222"
           transform="translate(579.8643,515.6924)"><path
             d="m 0,0 c -0.578,-0.393 -1.15,-0.715 -1.708,-1.03 -1.337,-0.752 -2.599,-1.463 -3.495,-2.971 -0.453,-0.771 -0.578,-1.642 -0.361,-2.518 l 0.019,-0.093 c 0.089,-0.419 0.326,-1.531 1.897,-1.994 0.293,-0.085 0.921,-0.125 1.727,0.046 0.812,0.173 1.631,0.517 2.435,1.02 0.387,0.243 0.743,0.577 0.93,0.768 z M -0.403,1.939 C -0.517,2.491 -0.789,3.732 -0.837,3.925 -0.906,4.196 -0.987,4.394 -1.101,4.563 -1.442,5.07 -1.927,5.437 -2.581,5.685 -3.267,5.935 -3.985,5.983 -4.717,5.828 -5.229,5.719 -5.656,5.504 -6.026,5.172 -6.532,4.721 -6.826,4.139 -6.904,3.438 -6.935,3.162 -6.924,2.818 -6.916,2.591 l 0.002,-0.055 c 0.01,-0.562 0.02,-1.14 -0.238,-1.64 L -7.155,0.891 c -0.278,-0.508 -0.746,-0.875 -1.253,-0.983 -0.725,-0.155 -1.351,0.055 -1.765,0.593 -0.655,0.841 -0.587,2.268 -0.142,3.16 0.281,0.57 0.674,1.121 1.139,1.589 1.199,1.21 2.87,2.09 4.705,2.481 0.696,0.149 1.396,0.221 2.083,0.217 C -1.03,7.933 0.78,7.573 1.77,6.8 2.222,6.455 2.641,5.959 2.916,5.443 3.383,4.569 3.598,3.56 3.756,2.822 3.78,2.708 4.081,1.28 4.738,-1.838 L 4.752,-1.905 C 5.105,-3.583 5.506,-5.485 5.519,-5.542 5.67,-6.229 5.866,-7.004 6.29,-7.503 6.449,-7.684 6.629,-7.778 6.854,-7.798 6.99,-7.81 7.111,-7.801 7.188,-7.79 c 0.022,0.002 0.048,0.006 0.075,0.011 0.045,0.007 0.1,0.019 0.12,0.023 L 7.655,-7.698 7.95,-9.079 4.704,-9.769 C 2.971,-10.046 2.233,-9.354 1.92,-8.7 L 1.057,-9.531 c -1.291,-1.137 -2.87,-1.949 -4.448,-2.286 -0.59,-0.126 -1.179,-0.18 -1.749,-0.16 -1.16,0.043 -2.347,0.573 -3.177,1.417 -0.516,0.513 -0.92,1.33 -1.125,1.923 -0.077,0.217 -0.144,0.457 -0.199,0.713 -0.641,2.552 0.698,4.703 2.041,5.77 1.609,1.28 3.196,2.035 4.597,2.7 l 0.04,0.02 c 0.888,0.418 1.802,0.847 2.56,1.373"
             style="fill:#34495e;fill-opacity:1;fill-rule:nonzero;stroke:none"
             id="path224" /></g><g
           id="g226"
           transform="translate(589.6104,534.0371)"><path
             d="m 0,0 0.123,-0.578 2.992,-13.95 c 1.276,1.924 3.569,5.385 3.673,5.563 0.237,0.438 0.308,0.778 0.193,0.958 -0.086,0.123 -0.283,0.099 -0.365,0.083 L 6.045,-8.046 5.751,-6.668 12.4,-5.25 12.694,-6.628 11.899,-6.798 C 10.659,-7.062 9.488,-8.135 8.104,-10.277 L 6.47,-12.83 c 1.515,-1.511 2.459,-2.366 2.565,-2.461 l 0.051,-0.05 4.7,-4.793 c 2.193,-2.134 3.713,-1.732 3.713,-1.732 l 0.294,-1.378 -8.105,-1.728 -0.294,1.378 0.776,0.166 c 0.395,0.084 0.425,0.215 0.434,0.257 0.058,0.26 -0.152,0.854 -1.48,2.203 l -4.757,4.84 -0.699,-1.099 0.96,-4.573 c 0.257,-1.208 0.595,-1.947 1.032,-2.26 0.244,-0.177 0.512,-0.222 0.87,-0.146 l 0.684,0.146 0.294,-1.378 -8.17,-1.742 -0.294,1.379 0.684,0.146 c 0.356,0.076 0.594,0.23 0.746,0.487 0.27,0.465 0.276,1.279 0.02,2.483 l -3.605,16.912 c -0.254,1.19 -0.592,1.921 -1.033,2.236 -0.265,0.195 -0.546,0.169 -1.004,0.075 l -0.625,-0.133 -0.294,1.379 0.467,0.181 4.497,1.8 z"
             style="fill:#34495e;fill-opacity:1;fill-rule:nonzero;stroke:none"
             id="path228" /></g><g
           id="g230"
           transform="translate(609.4102,523.7808)"><path
             d="M 0,0 7.778,1.659 C 7.488,2.928 6.789,4.075 5.871,4.767 5.035,5.4 3.984,5.661 3.057,5.463 2.857,5.42 2.665,5.357 2.485,5.274 1.688,4.906 1.02,4.168 0.6,3.197 0.142,2.148 -0.063,1.05 0,0 m 0.228,-1.795 c 0.218,-1.278 0.61,-2.497 1.138,-3.543 0.624,-1.227 1.438,-2.181 2.351,-2.759 1.033,-0.661 2.376,-0.901 3.595,-0.64 0.419,0.089 0.813,0.234 1.171,0.43 1.382,0.743 2.461,2.244 2.887,4.016 l 0.136,0.59 0.84,-0.224 c 0.047,-0.013 0.079,-0.024 0.108,-0.034 0.015,-0.005 0.023,-0.008 0.031,-0.01 l 0.009,-0.003 c 0.027,-0.008 0.045,-0.014 0.067,-0.021 0.03,-0.009 0.059,-0.019 0.1,-0.031 l 0.492,-0.137 -0.071,-0.511 c -0.366,-2.432 -1.778,-4.65 -3.684,-5.793 -0.685,-0.414 -1.448,-0.713 -2.268,-0.888 -0.916,-0.195 -1.89,-0.235 -2.895,-0.122 -1.908,0.218 -3.635,0.965 -4.995,2.164 -1.761,1.551 -2.979,4.027 -3.26,6.624 -0.214,1.984 0.103,3.979 0.893,5.62 1.078,2.216 3.112,3.887 5.44,4.472 C 2.404,7.43 2.488,7.448 2.578,7.467 4.535,7.884 6.612,7.535 8.279,6.509 10.11,5.376 11.474,3.433 11.927,1.308 l 0.125,-0.582 z"
             style="fill:#34495e;fill-opacity:1;fill-rule:nonzero;stroke:none"
             id="path232" /></g><g
           id="g234"
           transform="translate(463.7764,470.2529)"><path
             d="m 0,0 v 28.408 c 0,1.903 -0.298,3.081 -0.937,3.708 -0.368,0.352 -0.885,0.526 -1.577,0.526 h -1.091 v 2.173 H 26.23 V 25.85 h -2.173 l -0.536,1.239 c -1.478,3.634 -3.93,5.05 -8.745,5.05 H 7.163 V 17.253 h 4.924 c 3.706,0.048 5.852,0.945 6.747,2.825 l 0.345,0.781 h 2.17 V 10.472 h -2.176 l -0.359,0.876 c -0.939,2.201 -3.329,3.228 -7.518,3.228 H 7.163 V 0 c 0,-1.883 0.306,-3.095 0.935,-3.705 0.361,-0.357 0.874,-0.528 1.57,-0.528 h 1.101 V -6.407 H -3.605 v 2.174 h 0.968 c 0.785,0 1.328,0.168 1.706,0.531 C -0.305,-3.095 0,-1.883 0,0"
             style="fill:#34495e;fill-opacity:1;fill-rule:nonzero;stroke:none"
             id="path236" /></g><g
           id="g238"
           transform="translate(501.5225,492.7119)"><path
             d="M 0,0 -0.006,-3.542 C 2.127,-1.55 5.416,0.371 8.472,0.459 L 8.498,0.46 C 8.902,0.451 9.324,0.435 9.746,0.318 c 0.715,-0.19 1.453,-0.596 1.927,-1.06 0.485,-0.466 0.78,-1.14 0.828,-1.894 0.054,-0.82 -0.19,-1.658 -0.673,-2.297 -0.562,-0.759 -1.303,-1.162 -2.135,-1.162 -0.078,0 -0.155,0.003 -0.232,0.01 -0.82,0.081 -1.541,0.495 -2.238,0.896 l -0.037,0.021 c -0.325,0.189 -0.629,0.367 -0.889,0.47 -0.592,0.233 -1.186,0.356 -1.718,0.356 -0.456,0 -0.86,-0.092 -1.202,-0.272 -0.893,-0.464 -2.001,-1.425 -3.387,-2.941 0,-6.185 -0.007,-14.898 -0.007,-14.898 0,-1.91 0.271,-3.134 0.825,-3.741 0.319,-0.344 0.712,-0.499 1.272,-0.499 h 1.072 v -2.173 H -9.722 v 2.173 h 0.909 c 0.047,-10e-4 0.081,-10e-4 0.112,-10e-4 0.635,0 0.992,0.13 1.322,0.478 0.525,0.573 0.799,1.661 0.831,3.322 0.007,0.312 0.021,15.031 0.021,15.173 0,1.879 -0.279,3.102 -0.854,3.737 -0.344,0.389 -0.808,0.442 -1.459,0.421 H -8.855 -9.84 v 2.176 L -1.809,0 Z"
             style="fill:#34495e;fill-opacity:1;fill-rule:nonzero;stroke:none"
             id="path240" /></g><g
           id="g242"
           transform="translate(518.3994,500)"><path
             d="M 0,0 C 0,2.104 1.711,3.815 3.814,3.815 5.918,3.815 7.63,2.104 7.63,0 7.63,-2.104 5.918,-3.814 3.814,-3.814 1.711,-3.814 0,-2.104 0,0 m 10.769,-33.981 v -2.173 h -12.88 v 2.173 h 1.086 c 0.548,0 0.951,0.159 1.267,0.502 0.557,0.615 0.828,1.836 0.828,3.731 l -0.008,14.753 c 0,1.876 -0.273,3.088 -0.837,3.705 -0.33,0.368 -0.735,0.432 -1.235,0.432 l -1.248,0.004 v 2.173 l 0.764,0.123 7.395,1.27 h 1.702 v -22.46 c 0,-1.9 0.272,-3.125 0.833,-3.743 0.298,-0.336 0.697,-0.49 1.253,-0.49 z"
             style="fill:#34495e;fill-opacity:1;fill-rule:nonzero;stroke:none"
             id="path244" /></g><g
           id="g246"
           transform="translate(538.7783,482.7861)"><path
             d="M 0,0 H 12.262 C 12.234,2.008 11.547,3.962 10.385,5.3 9.33,6.523 7.828,7.254 6.366,7.254 6.052,7.254 5.741,7.22 5.443,7.153 4.125,6.854 2.878,5.957 1.934,4.627 0.905,3.192 0.242,1.604 0,0 m -0.233,-2.78 c -0.081,-1.997 0.118,-3.962 0.579,-5.708 0.547,-2.051 1.466,-3.751 2.657,-4.916 1.345,-1.329 3.294,-2.121 5.216,-2.121 0.66,0 1.3,0.091 1.902,0.272 2.324,0.676 4.432,2.592 5.645,5.127 l 0.392,0.847 1.196,-0.608 c 0.066,-0.035 0.113,-0.062 0.154,-0.087 0.018,-0.011 0.03,-0.018 0.042,-0.025 l 0.012,-0.007 c 0.038,-0.02 0.065,-0.035 0.094,-0.053 0.041,-0.024 0.084,-0.047 0.142,-0.079 l 0.696,-0.364 -0.27,-0.749 c -1.335,-3.548 -4.175,-6.438 -7.417,-7.551 -1.166,-0.403 -2.412,-0.608 -3.705,-0.608 -1.444,0 -2.925,0.252 -4.405,0.747 -2.806,0.94 -5.17,2.623 -6.834,4.867 -2.158,2.905 -3.199,7.03 -2.787,11.036 0.315,3.061 1.435,5.967 3.154,8.187 2.337,2.995 5.94,4.861 9.64,4.994 0.146,0.008 0.278,0.008 0.419,0.008 3.084,0 6.106,-1.194 8.289,-3.277 2.396,-2.296 3.826,-5.666 3.826,-9.015 l 0.001,-0.917 z"
             style="fill:#34495e;fill-opacity:1;fill-rule:nonzero;stroke:none"
             id="path248" /></g><g
           id="g250"
           transform="translate(570.627,492.7119)"><path
             d="M 0,0 -0.006,-3.301 C 2.306,-1.082 5.383,0.33 8.261,0.452 8.394,0.46 8.524,0.46 8.653,0.46 c 2.305,0 4.36,-0.86 5.942,-2.489 1.39,-1.432 2.23,-3.654 2.363,-6.258 V -8.32 l 0.016,-5.196 c 0,-4.005 -0.016,-8.899 -0.016,-8.939 0,-1.903 0.272,-3.127 0.832,-3.738 0.078,-0.085 0.17,-0.167 0.264,-0.234 0.211,-0.15 0.478,-0.233 0.843,-0.26 0.044,-0.003 0.27,-0.006 0.46,-0.006 0.04,0 0.073,0 0.093,0.001 h 0.703 v -2.174 H 7.268 v 2.174 h 0.69 c 0.244,0 0.475,0 0.719,0.019 0.345,0.029 0.677,0.198 0.933,0.479 0.559,0.613 0.83,1.838 0.83,3.742 v 0.476 c -0.019,8.548 -0.029,13.252 -0.029,13.603 -0.047,3.333 -1.242,5.027 -3.553,5.027 -3.744,0 -6.226,-3.346 -6.845,-4.278 l -0.014,-14.829 c 0,-1.904 0.272,-3.128 0.831,-3.74 0.306,-0.337 0.721,-0.499 1.271,-0.499 h 1.064 v -2.174 h -12.88 v 2.174 h 1.093 c 0.56,0 0.948,0.151 1.258,0.491 0.558,0.618 0.831,1.843 0.831,3.741 v 14.136 c 0.059,2.22 -0.208,3.638 -0.819,4.334 -0.342,0.389 -0.764,0.448 -1.409,0.448 l -0.105,10e-4 -0.988,-10e-4 v 2.176 L -1.712,0 Z"
             style="fill:#34495e;fill-opacity:1;fill-rule:nonzero;stroke:none"
             id="path252" /></g><g
           id="g254"
           transform="translate(612.0049,487.3428)"><path
             d="m 0,0 c -0.649,0.687 -2.527,2.346 -5.533,2.346 -1.069,0 -2.018,-0.2 -2.821,-0.59 -0.594,-0.289 -1.138,-0.719 -1.574,-1.242 -0.524,-0.62 -0.959,-1.378 -1.332,-2.321 -0.344,-0.866 -0.611,-1.899 -0.796,-3.07 -0.367,-2.44 -0.398,-5.035 -0.091,-7.709 0.131,-1.162 0.368,-2.222 0.721,-3.237 0.345,-0.981 0.77,-1.817 1.266,-2.484 1.244,-1.69 3.191,-2.045 4.605,-2.045 0.881,0 1.789,0.136 2.625,0.395 0.809,0.241 1.537,0.627 2.169,1.148 0.2,0.171 0.515,0.507 0.761,0.788 z m 0.037,3.635 v 5.929 c 0,1.87 -0.277,3.085 -0.844,3.719 -0.33,0.356 -0.767,0.415 -1.369,0.415 h -1.101 v 2.173 l 8.104,1.405 h 1.741 l 0.008,-36.3 c 0.27,-2.028 1.127,-2.308 2.014,-2.308 h 1.056 v -2.174 l -7.671,0.009 -1.3,2.389 c -2.065,-1.872 -4.47,-2.859 -6.985,-2.859 -7.247,0 -12.512,5.932 -12.803,14.424 -0.017,0.41 -0.017,0.748 0,1.031 0.293,8.596 5.437,14.37 12.803,14.37 2.808,0 4.996,-1.203 6.347,-2.223"
             style="fill:#34495e;fill-opacity:1;fill-rule:nonzero;stroke:none"
             id="path256" /></g><g
           id="g258"
           transform="translate(648.5664,471.0703)"><path
             d="m 0,0 c -0.312,-2.128 -1.548,-4.072 -3.392,-5.339 -2.238,-1.557 -4.777,-2.347 -7.545,-2.347 -1.271,0 -2.715,0.137 -4.292,0.408 -1.379,0.236 -5.112,1.232 -5.149,1.241 -0.43,0.11 -0.58,-0.171 -0.58,-0.171 h -2.072 v 9.295 h 2.17 l 0.169,-0.453 c 0.511,-1.372 1.177,-2.682 1.979,-3.896 0.346,-0.513 0.733,-1.051 1.205,-1.492 L -17.5,-2.76 c 0.466,-0.453 1.095,-0.874 1.871,-1.252 1.46,-0.719 3.105,-1.1 4.761,-1.1 1.506,0 2.748,0.382 3.693,1.134 0.844,0.676 1.313,1.611 1.32,2.629 0.012,1.152 -0.538,2.271 -1.509,3.073 -1.359,1.13 -3.693,2.085 -5.752,2.927 -4.693,1.934 -10.012,4.124 -9.936,9.042 0.032,1.806 0.727,3.529 1.956,4.853 0.769,0.811 1.765,1.553 2.804,2.09 1.563,0.823 3.465,1.31 5.65,1.447 0.379,0.02 0.754,0.029 1.12,0.029 2.124,0 4.145,-0.32 6.321,-1.004 0.156,-0.049 0.413,-0.143 0.52,-0.169 0.175,-0.041 0.268,-0.026 0.309,-0.013 0.168,0.052 0.234,0.174 0.234,0.174 h 2.015 v -2.447 c -10e-4,0 -10e-4,-5.587 -10e-4,-5.587 h -2.179 l -0.177,0.433 c -0.449,1.092 -1.697,3.262 -2.785,4.327 -0.285,0.283 -0.604,0.535 -0.98,0.773 -1.145,0.688 -2.206,0.985 -3.547,0.992 -2.186,0 -4.809,-1.093 -4.808,-3.549 0,-2.857 4.122,-4.48 7.76,-5.913 2.72,-1.068 5.316,-2.217 7.185,-4.5 C -0.313,4.059 0.274,2.059 0,0"
             style="fill:#34495e;fill-opacity:1;fill-rule:nonzero;stroke:none"
             id="path260" /></g><g
           id="g262"
           transform="translate(377.8926,520.5991)"><path
             d="M 0,0 0.354,9.296 1.75,9.542 4.603,0.812 Z"
             style="fill:#e8ca6f;fill-opacity:1;fill-rule:evenodd;stroke:none"
             id="path264" /></g><g
           id="g266"
           transform="translate(383.9531,526.3311)"><path
             d="M 0,0 C -1.371,-0.621 -7.375,1.222 -7.806,5.35 -8.237,9.479 -2.365,9.589 -0.891,7.727 0.583,5.865 1.372,0.621 0,0"
             style="fill:#e8ca6f;fill-opacity:1;fill-rule:evenodd;stroke:none"
             id="path268" /></g><g
           id="g270"
           transform="translate(380.0205,535.9673)"><path
             d="m 0,0 c -0.624,-0.008 -2.27,-0.229 -2.571,-0.281 -0.193,-0.034 -0.393,-0.115 -0.538,0.041 -0.119,0.127 -0.127,0.376 -0.185,0.538 -0.066,0.188 -0.146,0.371 -0.227,0.554 -0.227,0.52 -0.519,1.002 -0.884,1.437 -0.686,0.818 -1.58,1.395 -2.625,1.639 -1.154,0.269 -2.386,0.159 -3.523,-0.137 -1.218,-0.317 -2.263,-0.919 -3.362,-1.505 -1.047,-0.559 -2.186,-0.908 -3.378,-0.935 -1.202,-0.028 -2.198,0.446 -3.291,0.871 -1.119,0.434 -2.345,0.631 -3.523,0.328 -1.101,-0.283 -2.048,-0.922 -2.863,-1.696 -0.761,-0.724 -1.352,-1.537 -1.584,-2.576 -0.249,-1.118 -0.047,-2.261 0.827,-3.057 1.266,-1.152 3.241,-1.16 4.827,-0.845 0.918,0.182 1.793,0.509 2.608,0.966 1.088,0.609 1.969,1.473 2.955,2.221 0.464,0.352 0.952,0.659 1.476,0.911 0.508,0.245 1.024,0.406 1.565,0.171 0.572,-0.25 1.091,-0.502 1.715,-0.612 0.599,-0.105 1.215,-0.114 1.813,-0.004 1.164,0.215 2.25,0.779 3.341,1.22 0.889,0.36 1.842,0.731 2.818,0.708 0.407,-0.01 1.009,-0.072 1.222,-0.453 -2.312,-0.851 -2.733,-3.951 -1.679,-5.987 0.568,-1.099 2.993,-2.073 3.734,-1.312 0.47,0.483 0.054,0.933 -0.217,1.232 -0.518,0.571 -0.803,1.372 -0.132,1.952 0.578,0.5 1.419,-0.297 1.432,-0.294 0.175,0.045 1.558,1.178 2.394,2.623 1.053,0.123 1.091,0.834 0.744,1.349 C 2.541,-0.418 0.862,0.011 0,0"
             style="fill:#34495e;fill-opacity:1;fill-rule:evenodd;stroke:none"
             id="path272" /></g><g
           id="g274"
           transform="translate(380.4922,505.3818)"><path
             d="m 0,0 13.583,-22.097 9.843,-18.969 2.488,0.439 L 8.551,1.508 Z"
             style="fill:#e8ca6f;fill-opacity:1;fill-rule:evenodd;stroke:none"
             id="path276" /></g><g
           id="g278"
           transform="translate(378.6006,505.0479)"><path
             d="m 0,0 c 1.371,-8.364 1.894,-19.859 1.753,-20.421 -0.095,-0.374 -4.682,-5.731 -13.761,-16.07 l 2.036,-1.53 c 11.196,9.466 16.996,14.735 17.403,15.805 0.609,1.607 1.07,15.482 1.925,23.866 z"
             style="fill:#e8ca6f;fill-opacity:1;fill-rule:evenodd;stroke:none"
             id="path280" /></g><g
           id="g282"
           transform="translate(366.2227,469.1016)"><path
             d="m 0,0 c -0.531,-0.301 -0.888,-0.561 -1.072,-0.779 -0.226,-0.27 -0.511,-0.7 -0.855,-1.293 0.313,-0.263 3.124,-2.622 8.435,-7.078 0.827,0.54 1.028,1.037 0.604,1.491 -0.424,0.454 -0.772,0.836 -1.046,1.144 l -2.45,5.027 C 3.566,-1.387 3.443,-1.344 3.342,-1.394 3.34,-1.395 3.338,-1.396 3.337,-1.396 L 2.581,-1.791 C 1.973,-1.628 1.532,-1.432 1.259,-1.202 1.039,-1.018 0.811,-0.678 0.573,-0.18 0.476,0.025 0.23,0.111 0.025,0.014 0.017,0.01 0.009,0.005 0,0"
             style="fill:#34495e;fill-opacity:1;fill-rule:evenodd;stroke:none"
             id="path284" /></g><g
           id="g286"
           transform="translate(402.7373,465.0186)"><path
             d="M 0,0 C -0.11,-0.6 -0.141,-1.041 -0.092,-1.322 -0.03,-1.669 0.116,-2.164 0.35,-2.809 0.752,-2.737 4.366,-2.1 11.193,-0.896 11.311,0.084 11.06,0.559 10.439,0.525 9.819,0.492 9.303,0.471 8.891,0.46 L 3.465,1.813 C 3.354,1.841 3.243,1.773 3.216,1.664 3.216,1.662 3.215,1.66 3.215,1.658 L 3.031,0.826 C 2.516,0.465 2.082,0.254 1.73,0.191 1.448,0.142 1.04,0.186 0.507,0.323 0.287,0.38 0.062,0.248 0.006,0.028 0.004,0.02 0.002,0.01 0,0"
             style="fill:#34495e;fill-opacity:1;fill-rule:evenodd;stroke:none"
             id="path288" /></g><g
           id="g290"
           transform="translate(394.1729,464.7305)"><path
             d="M 0,0 11.604,3.368 -4.301,42.305 -14.897,40.437 Z"
             style="fill:#34495e;fill-opacity:1;fill-rule:evenodd;stroke:none"
             id="path292" /></g><g
           id="g294"
           transform="translate(368.5186,471.9434)"><path
             d="m 0,0 9.378,-7.807 c 6.601,10.359 10.34,17.017 11.218,19.976 0.877,2.959 0.798,10.541 -0.239,22.748 L 8.428,32.813 C 9.7,22.139 10.277,16.537 10.158,16.009 10.039,15.48 6.652,10.145 0,0"
             style="fill:#34495e;fill-opacity:1;fill-rule:evenodd;stroke:none"
             id="path296" /></g><g
           id="g298"
           transform="translate(367.8525,507.2319)"><path
             d="m 0,0 4.054,-0.088 c -2.643,-8.045 -4.069,-12.313 -4.277,-12.804 -0.468,-1.106 0.452,-2.818 0.843,-3.737 -1.333,-0.57 -1.154,1.623 -2.837,0.875 -1.536,-0.683 -2.717,-1.948 -4.459,-0.829 -0.214,0.137 -0.442,0.644 0.138,1.027 1.444,0.955 3.531,2.634 3.818,3.193 C -2.327,-11.6 -1.421,-7.479 0,0 m 27.853,5.776 6.389,4.267 c 0.999,1.424 2.009,2.551 3.028,3.38 0.319,0.167 0.89,0.302 0.433,-0.708 -0.457,-1.009 -0.892,-2.091 -0.591,-2.363 0.302,-0.273 0.953,0.201 1.326,-0.263 C 38.686,9.78 37.557,9.159 35.05,8.226 L 30.564,3.329 Z"
             style="fill:#34495e;fill-opacity:1;fill-rule:evenodd;stroke:none"
             id="path300" /></g><g
           id="g302"
           transform="translate(379.8271,524.4727)"><path
             d="m 0,0 1.604,0.576 c 4.215,-2.862 7.167,-11.004 9.761,-11.693 2.454,-0.652 5.49,0.933 9.071,2.981 l 1.631,-2.412 C 19.258,-14.923 12.42,-19.406 9.102,-18.12 3.795,-16.064 0.861,-5.899 0,0"
             style="fill:#34495e;fill-opacity:1;fill-rule:evenodd;stroke:none"
             id="path304" /></g><g
           id="g306"
           transform="translate(376.2891,502.4043)"><path
             d="m 0,0 c 6.628,1.169 11.503,2.028 14.625,2.579 0.669,0.118 0.372,1.062 0.189,1.532 C 12.708,9.542 7.286,14.84 5.873,22.85 L 1.538,22.768 C -0.96,16.534 -0.947,9.403 0,0"
             style="fill:#e8ca6f;fill-opacity:1;fill-rule:evenodd;stroke:none"
             id="path308" /></g><g
           id="g310"
           transform="translate(373.8262,507.8442)"><path
             d="m 0,0 c -2.032,-5.91 -3.854,-10.229 -5.467,-12.956 l -3.172,0.061 C -8.826,-0.285 -4.703,9.773 3.729,17.28 l 0.048,0.009 1.622,0.286 C 11.466,5.317 14.028,-3.112 13.087,-7.71 L -0.077,-10.032 C -0.424,-6.849 -0.343,-3.405 0,0"
             style="fill:#34495e;fill-opacity:1;fill-rule:evenodd;stroke:none"
             id="path312" /></g><g
           id="g314"
           transform="translate(439.2734,520.5991)"><path
             d="M 0,0 -0.354,9.296 -1.75,9.542 -4.603,0.812 Z"
             style="fill:#e8ca6f;fill-opacity:1;fill-rule:evenodd;stroke:none"
             id="path316" /></g><g
           id="g318"
           transform="translate(433.2129,526.3311)"><path
             d="M 0,0 C 1.371,-0.621 7.375,1.222 7.806,5.35 8.237,9.479 2.365,9.589 0.891,7.727 -0.583,5.865 -1.372,0.621 0,0"
             style="fill:#e8ca6f;fill-opacity:1;fill-rule:evenodd;stroke:none"
             id="path320" /></g><g
           id="g322"
           transform="translate(436.6738,505.3818)"><path
             d="m 0,0 -13.583,-22.097 -9.843,-18.969 -2.488,0.439 17.363,42.135 z"
             style="fill:#e8ca6f;fill-opacity:1;fill-rule:evenodd;stroke:none"
             id="path324" /></g><g
           id="g326"
           transform="translate(438.5654,505.0479)"><path
             d="m 0,0 c -1.371,-8.364 -1.894,-19.859 -1.753,-20.421 0.095,-0.374 4.682,-5.731 13.761,-16.07 l -2.036,-1.53 c -11.196,9.466 -16.996,14.735 -17.403,15.805 -0.61,1.607 -1.07,15.482 -1.925,23.866 z"
             style="fill:#e8ca6f;fill-opacity:1;fill-rule:evenodd;stroke:none"
             id="path328" /></g><g
           id="g330"
           transform="translate(450.9434,469.1016)"><path
             d="m 0,0 c 0.531,-0.301 0.888,-0.561 1.072,-0.779 0.226,-0.27 0.511,-0.7 0.855,-1.293 -0.313,-0.263 -3.124,-2.622 -8.435,-7.078 -0.827,0.54 -1.028,1.037 -0.604,1.491 0.424,0.454 0.772,0.836 1.046,1.144 l 2.45,5.027 c 0.05,0.101 0.173,0.144 0.274,0.094 0.002,-0.001 0.004,-0.002 0.005,-0.002 l 0.756,-0.395 c 0.608,0.163 1.049,0.359 1.322,0.589 0.22,0.184 0.448,0.524 0.686,1.022 0.097,0.205 0.343,0.291 0.548,0.194 C -0.017,0.01 -0.009,0.005 0,0"
             style="fill:#34495e;fill-opacity:1;fill-rule:evenodd;stroke:none"
             id="path332" /></g><g
           id="g334"
           transform="translate(414.4287,465.0186)"><path
             d="M 0,0 C 0.11,-0.6 0.141,-1.041 0.092,-1.322 0.03,-1.669 -0.116,-2.164 -0.35,-2.809 c -0.402,0.072 -4.016,0.709 -10.843,1.913 -0.118,0.98 0.133,1.455 0.754,1.421 0.62,-0.033 1.136,-0.054 1.548,-0.065 l 5.426,1.353 c 0.111,0.028 0.222,-0.04 0.249,-0.149 0,-0.002 0.001,-0.004 0.001,-0.006 L -3.031,0.826 C -2.516,0.465 -2.082,0.254 -1.73,0.191 -1.448,0.142 -1.04,0.186 -0.507,0.323 -0.287,0.38 -0.062,0.248 -0.006,0.028 -0.004,0.02 -0.002,0.01 0,0"
             style="fill:#34495e;fill-opacity:1;fill-rule:evenodd;stroke:none"
             id="path336" /></g><g
           id="g338"
           transform="translate(422.9932,464.7305)"><path
             d="M 0,0 -11.604,3.368 4.301,42.305 14.897,40.437 Z"
             style="fill:#34495e;fill-opacity:1;fill-rule:evenodd;stroke:none"
             id="path340" /></g><g
           id="g342"
           transform="translate(448.6475,471.9434)"><path
             d="m 0,0 -9.378,-7.807 c -6.601,10.359 -10.34,17.017 -11.218,19.976 -0.877,2.959 -0.798,10.541 0.239,22.748 L -8.428,32.813 C -9.7,22.139 -10.277,16.537 -10.158,16.009 -10.039,15.48 -6.652,10.145 0,0"
             style="fill:#34495e;fill-opacity:1;fill-rule:evenodd;stroke:none"
             id="path344" /></g><g
           id="g346"
           transform="translate(452.0332,494.8691)"><path
             d="m 0,0 c 0.287,-0.56 2.374,-2.238 3.818,-3.193 0.58,-0.383 0.352,-0.89 0.138,-1.028 -1.742,-1.118 -2.923,0.147 -4.459,0.829 -1.683,0.748 -1.504,-1.444 -2.837,-0.875 0.391,0.919 1.312,2.632 0.843,3.738 -0.208,0.491 -1.634,4.759 -4.276,12.804 l 4.053,0.088 C -1.299,4.884 -0.393,0.763 0,0 m -33.284,15.692 -4.486,4.897 c -2.506,0.933 -3.635,1.554 -3.387,1.863 0.372,0.464 1.023,-0.01 1.325,0.262 0.302,0.272 -0.134,1.355 -0.591,2.364 -0.457,1.009 0.114,0.875 0.434,0.708 1.018,-0.829 2.028,-1.956 3.027,-3.38 l 6.39,-4.267 z"
             style="fill:#34495e;fill-opacity:1;fill-rule:evenodd;stroke:none"
             id="path348" /></g><g
           id="g350"
           transform="translate(437.3389,524.4727)"><path
             d="m 0,0 -1.604,0.576 c -4.215,-2.862 -7.167,-11.004 -9.761,-11.693 -2.454,-0.652 -5.49,0.933 -9.071,2.981 l -1.631,-2.412 c 2.809,-4.375 9.647,-8.858 12.965,-7.572 C -3.795,-16.064 -0.861,-5.899 0,0"
             style="fill:#34495e;fill-opacity:1;fill-rule:evenodd;stroke:none"
             id="path352" /></g><g
           id="g354"
           transform="translate(440.877,502.4043)"><path
             d="m 0,0 c -6.628,1.169 -11.503,2.028 -14.625,2.579 -0.669,0.118 -0.372,1.062 -0.189,1.532 2.106,5.431 7.528,10.729 8.941,18.739 l 4.335,-0.082 C 0.96,16.534 0.947,9.403 0,0"
             style="fill:#e8ca6f;fill-opacity:1;fill-rule:evenodd;stroke:none"
             id="path356" /></g><g
           id="g358"
           transform="translate(443.3398,507.8442)"><path
             d="m 0,0 c 2.032,-5.91 3.854,-10.229 5.467,-12.956 l 3.172,0.061 C 8.826,-0.285 4.703,9.773 -3.729,17.28 l -0.048,0.009 -1.622,0.286 C -11.466,5.317 -14.028,-3.112 -13.087,-7.71 L 0.077,-10.032 C 0.424,-6.849 0.343,-3.405 0,0"
             style="fill:#34495e;fill-opacity:1;fill-rule:evenodd;stroke:none"
             id="path360" /></g><g
           id="g362"
           transform="translate(432.7529,535.9849)"><path
             d="m 0,0 c 0,0 -2.19,-3.11 1.697,-3.852 3.888,-0.742 4.17,0.212 4.17,0.212 0,0 -0.813,-2.262 0.654,-3.252 1.467,-0.989 2.577,2.662 2.916,4.383 C 9.896,-0.176 3.853,3.888 0,0"
             style="fill:#34495e;fill-opacity:1;fill-rule:evenodd;stroke:none"
             id="path364" /></g></g></g></g></svg>
