<svg xmlns="http://www.w3.org/2000/svg" width="99.237" height="73.383" viewBox="0 0 99.237 73.383"><defs><style>.a{isolation:isolate;}.b{fill:#ccc;}.c{fill:#fff;}.d{fill:#e8ca6f;}.e{fill:#ffb8b8;}.f{fill:#2f2e41;}.g{fill:#dbca73;}</style></defs><g class="a" transform="translate(-5.358 0)"><path class="b" d="M635.444,205.02c-.114.094-.228.183-.345.272H606.273q-.322-.132-.641-.272a33.946,33.946,0,0,1-8.407-5.234,34.436,34.436,0,0,1-4.348-4.272,18.242,18.242,0,0,1-3.674-6.405,8.224,8.224,0,0,1,1.025-7.1,6.358,6.358,0,0,1,1.678-1.537c.107-.068.216-.133.327-.194a8.361,8.361,0,0,1,6.067-.73,12.794,12.794,0,0,1,7,5.272,38.076,38.076,0,0,1,3.919,8.02,17.375,17.375,0,0,1,9.024-11.638,16.1,16.1,0,0,1,14.641.215,14.715,14.715,0,0,1,3.744,2.949c.107.115.212.234.315.353a14.756,14.756,0,0,1,3.639,9.048A14.183,14.183,0,0,1,635.444,205.02Z" transform="translate(-535.993 -179.277)"/><path class="c" d="M626.912,211.342H626.5c-.005-.091-.012-.181-.02-.272a30.459,30.459,0,0,0-.891-5.264,32.452,32.452,0,0,0-5.206-10.933,31.063,31.063,0,0,0-8.9-8.215.193.193,0,0,1-.1-.14.2.2,0,0,1,.3-.212l.027.018a30.774,30.774,0,0,1,5.452,4.229,32.734,32.734,0,0,1,7.026,10.073,31.742,31.742,0,0,1,2.693,10.445C626.9,211.161,626.905,211.252,626.912,211.342Z" transform="translate(-555.48 -185.327)"/><path class="c" d="M757.005,216.778l-.009,0c-.3.054-.6.111-.893.173a40.337,40.337,0,0,0-7.111,2.159,41.963,41.963,0,0,0-6.59,3.4A42.637,42.637,0,0,0,736.5,227a41.781,41.781,0,0,0-5.026,5.452,40.42,40.42,0,0,0-3.072,4.628c-.052.09-.1.181-.152.272h-.466c.049-.091.1-.182.151-.272a40.758,40.758,0,0,1,3.8-5.616,42.238,42.238,0,0,1,5.206-5.4,43.187,43.187,0,0,1,6.03-4.386A42.378,42.378,0,0,1,749.7,218.4a40.373,40.373,0,0,1,6.991-1.973l.2-.037C757.143,216.342,757.251,216.725,757.005,216.778Z" transform="translate(-656.057 -211.342)"/><path class="d" d="M260.875,335.871a4.288,4.288,0,0,0-.057-4.41,4.333,4.333,0,0,0-2.253-1.519,11.908,11.908,0,0,0-2.726-.427,9.126,9.126,0,0,0-2.725.086,3.272,3.272,0,0,0-2.183,1.512c-.732,1.357-.065,3.1-.6,4.542a4.365,4.365,0,0,1-3.276,2.414c-1.38.313-2.82.28-4.2.589a4.384,4.384,0,0,0-3.288,2.4,3.666,3.666,0,0,0,.3,2.962,7.632,7.632,0,0,0,2.022,2.28,7.376,7.376,0,0,0,4.1,1.866,5.937,5.937,0,0,0,4.331-1.795,12.1,12.1,0,0,0,2.571-4.043,6.189,6.189,0,0,1,1.575-2.584,5.507,5.507,0,0,1,2.058-.863l.82-.219a5.631,5.631,0,0,0,3.519-2.752Z" transform="translate(-234.014 -309.048)"/><path class="e" d="M134.445,487.8H132.78l-.793-6.426h2.459Z" transform="translate(-114.052 -415.966)"/><path class="f" d="M116.2,525.162h3.213v2.023h-5.236A2.023,2.023,0,0,1,116.2,525.162Z" transform="translate(-98.661 -453.801)"/><path class="e" d="M236.445,487.8H234.78l-.793-6.426h2.459Z" transform="translate(-202.192 -415.966)"/><path class="f" d="M218.2,525.162h3.213v2.023h-5.236a2.023,2.023,0,0,1,2.023-2.023Z" transform="translate(-186.801 -453.801)"/><path class="f" d="M326.421,502.619a.654.654,0,0,1-.07,0l-6.777-.726a.637.637,0,0,1-.552-.781l6-22.824a.641.641,0,0,1,.482-.474l5.567-1.552a.642.642,0,0,1,.618.2c3.579,4.037,6.276,12.986,8.32,24.267a.637.637,0,0,1-.546.746l-5.553.709a.636.636,0,0,1-.7-.493l-2.7-12.046a.5.5,0,0,0-.97.011l-2.491,12.454A.634.634,0,0,1,326.421,502.619Z" transform="translate(-302.826 -435.889)"/><circle class="e" cx="3.337" cy="3.337" r="3.337" transform="translate(19.227 23.282)"/><path class="b" d="M348.143,418.743a.636.636,0,0,1-.614-.474l-2.008-7.543a2.28,2.28,0,0,1,1.374-2.713,9.5,9.5,0,0,1,4.577-.7h0c1.263.15,2.82,7.625,2.717,7.785l.5,1.495a.637.637,0,0,1-.468.824l-5.937,1.306A.644.644,0,0,1,348.143,418.743Z" transform="translate(-325.671 -376.285)"/><path class="e" d="M357.313,518.5a1.034,1.034,0,0,0-1-1.23l-1.157-3.488-1.182,1.5,1.28,3.082a1.04,1.04,0,0,0,2.06.136Z" transform="translate(-333.042 -468.331)"/><path class="e" d="M458.655,471.7a1.034,1.034,0,0,0-1.547-.348l-3.065-2.028,0,1.91,2.911,1.633a1.04,1.04,0,0,0,1.7-1.167Z" transform="translate(-419.512 -429.915)"/><path class="b" d="M338.546,432.92a.637.637,0,0,1-.605-.437l-2.712-5.736a3.315,3.315,0,0,1-.168-1.042l.815-7.456a1.639,1.639,0,0,1,3.265-.2l-1.247,8.51,1.991,5.223a.636.636,0,0,1-.337.71l-.717.359A.636.636,0,0,1,338.546,432.92Z" transform="translate(-316.701 -384.36)"/><path class="b" d="M389.22,419.3a.636.636,0,0,1-.287-.068l-5.393-2.724a3.311,3.311,0,0,1-.855-.62l-5.264-5.281a1.639,1.639,0,0,1,2.173-2.445l5.7,6.332,4.52,2.87a.636.636,0,0,1,.263.741l-.255.76A.637.637,0,0,1,389.22,419.3Z" transform="translate(-352.891 -376.754)"/><path class="g" d="M338.061,348.638a3.886,3.886,0,0,0,2.3,1.445,4.059,4.059,0,0,0,2.726-.391,7.561,7.561,0,0,0,1.737-1.445,1.172,1.172,0,0,0,.443-.788c-.017-.473-.586-.732-1.075-.835a7.668,7.668,0,0,0-4.76.535c-.663.308-1.354.865-1.254,1.558" transform="translate(-319.293 -323.744)"/><path class="c" d="M751.8,322.074a26.938,26.938,0,0,0-8.54.193,27.5,27.5,0,0,0-8.041,2.811,26.524,26.524,0,0,0-4.012,2.651c-.2.164.085.45.288.288a26.336,26.336,0,0,1,7.309-4.108,27.129,27.129,0,0,1,8.162-1.656,25.966,25.966,0,0,1,4.726.214.211.211,0,0,0,.251-.142.205.205,0,0,0-.142-.251Z" transform="translate(-658.954 -302.453)"/></g></svg>