<svg width="366" height="366" viewBox="0 0 366 366" fill="none" xmlns="http://www.w3.org/2000/svg">
<g clip-path="url(#clip0)">
<g clip-path="url(#clip1)">
<path d="M-99.1499 185.611C-30.6909 52.0522 -27.2681 143.196 -27.2681 143.196C-27.2681 143.196 -52.084 274.053 -11.009 126.952C30.066 -20.1493 402.315 173.876 402.315 173.876L417.715 395.876L-106 387.754L-99.1499 185.611Z" fill="#E7E6E7"/>
</g>
<g clip-path="url(#clip2)">
<path d="M58.103 60.278L59.677 52.892C58.7442 51.8782 58.2503 50.5366 58.303 49.16C58.589 45.06 64.263 45.96 65.367 48.03C66.471 50.1 66.34 55.356 64.913 55.73C63.8317 55.7403 62.776 55.4011 61.903 54.763L62.675 60.278H58.103Z" fill="#B28B67"/>
<path d="M61.675 54.883C61.3845 53.3863 61.2282 51.8666 61.208 50.342C60.9629 50.3135 60.715 50.3624 60.499 50.4817C60.283 50.601 60.1096 50.7849 60.0032 51.0075C59.8968 51.2301 59.8626 51.4805 59.9054 51.7235C59.9482 51.9665 60.0659 52.1901 60.242 52.363C59.969 52.749 59.663 53.153 59.312 53.57C58.4962 52.9752 57.9377 52.092 57.7499 51.1001C57.5621 50.1081 57.7591 49.0818 58.301 48.23C58.4558 47.7503 58.7323 47.3189 59.1035 46.9778C59.4747 46.6368 59.9279 46.3977 60.419 46.284C61.1277 45.9761 61.9198 45.9175 62.666 46.118C63.6551 46.1758 64.6221 46.4344 65.508 46.878C65.508 48.135 65.265 48.508 63.19 48.478C62.6487 48.8105 62.1985 49.2724 61.88 49.822C61.88 49.863 62.157 53.607 63.314 53.607C64.471 53.607 65.463 52.867 65.974 52.867C66.346 52.867 66.263 53.334 66.016 53.68C65.816 53.966 64.822 54.241 64.822 54.68C64.822 54.93 65.072 54.93 65.289 54.929C65.456 54.929 65.605 54.929 65.605 55.043C65.605 55.477 65.743 56.293 64.991 56.293C64.239 56.293 62.048 56.015 61.675 54.883Z" fill="#34495E"/>
<path d="M56.275 77.278L63.405 102.365L68.605 120.855H72.399L66.875 77.278H56.275Z" fill="#34495E"/>
<path d="M54.368 77.278C54.203 90.208 53.641 97.261 53.468 98.435C53.295 99.609 50.676 107.083 45.613 120.855H49.544C55.99 107.643 59.59 100.17 60.344 98.435C61.089 96.7 63.406 89.648 66.895 77.278H54.368Z" fill="#34495E"/>
<path d="M45.102 124.165L45.302 120.024H49.432C51.8153 121.502 54.3983 122.631 57.102 123.376V124.165H49.625L47.069 123.77V124.164L45.102 124.165Z" fill="#34495E"/>
<path d="M68.102 124.165L68.302 120.024H72.432C74.8153 121.502 77.3983 122.631 80.102 123.376V124.165H72.625L70.069 123.77V124.164L68.102 124.165Z" fill="#34495E"/>
<path d="M42.3 88.213C42.2389 88.0726 42.1506 87.9457 42.0403 87.8395C41.9299 87.7333 41.7997 87.6499 41.6571 87.5942C41.5145 87.5384 41.3623 87.5114 41.2092 87.5146C41.0561 87.5179 40.9051 87.5513 40.765 87.613C39.136 88.113 37.791 89.24 36.178 87.897C35.978 87.732 35.812 87.197 36.443 86.878C37.9737 86.1608 39.3994 85.2383 40.681 84.136C41.414 83.056 45.657 71.566 45.657 71.566L49.14 72.073C49.14 72.073 43.531 84.273 43.126 84.973C42.518 86.029 43.233 87.873 43.512 88.843C43.4059 88.8753 43.2959 88.8925 43.185 88.894C42.737 88.899 42.53 88.556 42.3 88.213ZM76.935 80.092L70.917 77.081L72.54 73.75L78.476 78.796C79.9397 79.2748 81.331 79.9517 82.611 80.808C82.863 81.073 83.153 81.593 82.044 81.429C80.935 81.265 79.76 81.142 79.579 81.513C79.398 81.884 80.042 82.387 79.695 82.88C79.6812 82.9005 79.6624 82.9172 79.6403 82.9284C79.6183 82.9396 79.5937 82.945 79.569 82.944C79.211 82.9447 78.333 81.994 76.935 80.092Z" fill="#B28B67"/>
<path d="M60.2157 57.3274L62.3736 56.6127C65.3888 64.5649 70.4149 71.5992 76.961 77.0285L75.158 80.1488C68.7495 76.3634 62.6806 73.4237 60.2172 67.7429C59.3902 65.8361 60.1489 59.6088 60.2157 57.3274Z" fill="#E8CA6F"/>
<path d="M52.802 77.967C52.802 77.967 62.076 78.953 67.402 77.967C67.842 77.886 67.911 77.147 67.707 76.646C64.53 68.843 62.352 62.033 62.352 56.613C61.3521 56.8682 60.3101 56.9131 59.292 56.745C55.376 62.331 53.575 68.74 52.802 77.967Z" fill="#DDE3E9"/>
<path d="M45.208 98.791C45.63 89.941 48.885 79.357 52.256 70.37C49.765 72.852 46.865 77.012 44.515 83.937L40.765 82.975C43.1607 72.3638 49.255 62.9518 57.957 56.424L58.02 56.275H58.17C58.27 56.207 58.324 56.175 58.324 56.175L58.318 56.275H59.95C60.33 58.516 61.529 88.862 65.229 98.789L45.208 98.791Z" fill="#E8CA6F"/>
</g>
<g clip-path="url(#clip3)">
<path d="M157.999 81.048L159.376 74.718C158.973 74.291 158.66 73.7882 158.454 73.2387C158.248 72.6893 158.153 72.1044 158.176 71.518C158.425 68 163.39 68.774 164.356 70.548C165.322 72.322 165.207 76.827 163.956 77.148C163.011 77.1594 162.088 76.8705 161.318 76.323L161.999 81.048H157.999Z" fill="#B28B67"/>
<path d="M159.069 75.601C158.569 73.401 157.137 71.901 157.355 70.914C157.424 70.6255 157.569 70.3603 157.773 70.1453C157.978 69.9302 158.235 69.7728 158.52 69.689C158.52 69.689 159.009 67.738 161.676 68.03C164.343 68.322 165.97 69.413 165.267 71.815C164.432 71.6839 163.578 71.7399 162.767 71.979C162.254 72.167 162.033 73.144 162.033 73.144H161.541C161.541 73.144 160.831 71.984 160.141 72.292C159.451 72.6 159.827 73.785 159.827 73.785L159.587 75.601H159.069Z" fill="#34495E"/>
<path d="M158 122.048H154C151.348 122.048 148.804 120.994 146.929 119.119C145.054 117.244 144 114.7 144 112.048C144 109.396 145.054 106.852 146.929 104.977C148.804 103.102 151.348 102.048 154 102.048H158C160.652 102.048 163.196 103.102 165.071 104.977C166.946 106.852 168 109.396 168 112.048C168 114.7 166.946 117.244 165.071 119.119C163.196 120.994 160.652 122.048 158 122.048V122.048ZM152.572 106.564C151.511 106.564 150.494 106.985 149.744 107.736C148.993 108.486 148.572 109.503 148.572 110.564V113.532C148.572 114.593 148.993 115.61 149.744 116.36C150.494 117.111 151.511 117.532 152.572 117.532H159.429C160.49 117.532 161.507 117.111 162.257 116.36C163.008 115.61 163.429 114.593 163.429 113.532V110.564C163.429 109.503 163.008 108.486 162.257 107.736C161.507 106.985 160.49 106.564 159.429 106.564H152.572Z" fill="#E8CA6F"/>
<path d="M184.859 121.503C182.448 118.716 180.22 115.777 178.189 112.703C176.202 109.435 174.575 106.525 174.062 105.414C172.833 102.764 176.88 101.523 177.795 102.759C179.18 104.63 182.137 110.518 186.666 120.422L184.859 121.503Z" fill="#B28B67"/>
<path d="M178.126 120.357L172.011 105.177C170.703 102.41 177.019 100.591 177.98 101.879C180.162 104.802 185.349 116.334 185.999 117.204L178.126 120.357Z" fill="#34495E"/>
<path d="M161.839 117.309C164.271 113.87 166.903 110.577 169.723 107.448C170.404 106.766 171.066 106.107 171.691 105.494C173.552 103.673 177.255 106.735 175.399 108.394C170.775 112.527 164.03 118.103 163.464 118.603C162.671 119.298 161.09 118.386 161.839 117.309Z" fill="#B28B67"/>
<path d="M161.386 117.358C161.346 117.312 161.297 117.275 161.242 117.248C161.188 117.222 161.128 117.207 161.068 117.205C161.007 117.202 160.946 117.212 160.89 117.233C160.833 117.255 160.781 117.287 160.737 117.329L159.614 118.427C159.343 118.957 159.104 119.503 158.901 120.062L169.871 126.396C169.871 126.396 171.114 125.229 170.258 124.585C169.402 123.94 168.845 123.498 168.845 123.498L165.06 118.281C165.043 118.257 165.02 118.236 164.994 118.221C164.969 118.205 164.94 118.195 164.91 118.191C164.88 118.186 164.85 118.188 164.821 118.196C164.792 118.203 164.764 118.217 164.741 118.235L163.954 118.841C163.397 118.797 162.852 118.661 162.339 118.439L161.386 117.358Z" fill="#34495E"/>
<path d="M183.913 120.993C183.87 120.978 183.825 120.973 183.78 120.976C183.735 120.98 183.692 120.992 183.652 121.013C183.612 121.033 183.576 121.062 183.548 121.097C183.519 121.132 183.498 121.172 183.485 121.215L183.167 122.324C183.19 122.76 183.24 123.194 183.317 123.624H192.717C192.717 123.624 193.083 122.43 192.294 122.334C191.505 122.238 190.982 122.162 190.982 122.162L186.614 120.239C186.594 120.23 186.572 120.225 186.55 120.225C186.528 120.224 186.506 120.228 186.485 120.236C186.464 120.244 186.445 120.256 186.429 120.272C186.414 120.287 186.401 120.306 186.392 120.326L186.111 120.998C185.736 121.174 185.335 121.287 184.923 121.334L183.913 120.993Z" fill="#34495E"/>
<path d="M169.811 105.934C169.811 105.934 162.187 104.71 159.597 104.26C154.677 103.404 153.242 100.798 154.09 95.098H163.161C164.961 95.61 178.2 101.436 178.2 101.436C179.788 102.213 179.492 104.505 179.2 105.26C179.182 105.306 171.169 118.828 171.169 118.828L163.75 114.169L169.825 106.483C169.825 106.483 170.061 106.005 169.811 105.934Z" fill="#34495E"/>
<path d="M144.894 107.46C144.708 107.347 144.504 106.921 144.994 106.588C146.191 105.819 147.279 104.892 148.226 103.83C148.722 102.854 150.385 93.333 150.385 93.333L153.868 93.346C153.868 93.346 150.642 103.613 150.385 104.241C149.999 105.183 150.816 106.618 151.164 107.39C150.614 107.633 150.358 107.323 150.079 107.013C149.939 106.791 149.718 106.634 149.463 106.574C149.208 106.514 148.939 106.556 148.715 106.692C147.768 107.126 146.986 107.816 146.053 107.816C145.641 107.809 145.239 107.686 144.894 107.46V107.46ZM174.886 98.217L169.622 96.064L170.794 93.2L176.11 97.049C177.374 97.3611 178.589 97.8428 179.724 98.481C179.953 98.686 180.224 99.102 179.281 99.03C178.338 98.958 177.333 98.925 177.202 99.243C177.071 99.561 177.645 99.943 177.38 100.373C177.368 100.393 177.351 100.409 177.331 100.419C177.311 100.43 177.288 100.435 177.265 100.434C176.956 100.434 176.163 99.695 174.886 98.217Z" fill="#B28B67"/>
<path d="M160.283 78.9245L161.723 78.681C167.07 83.2337 169.266 91.9853 175.821 96.6134L174.248 98.5413C162.876 97.1546 160.056 86.4849 160.283 78.9245Z" fill="#E8CA6F"/>
<path d="M154 96.78H166.752C167.335 96.78 167.225 95.95 167.141 95.532C166.168 90.701 162.374 85.494 162.374 78.617L158.7 78.048C155.653 82.872 154.6 88.812 154 96.78Z" fill="#DDE3E9"/>
<path d="M148.167 103.682C147.97 96.2013 150.187 88.8558 154.489 82.733C154.15 82.7258 153.818 82.6296 153.528 82.4541C153.237 82.2787 152.998 82.03 152.834 81.733C151.489 79.339 151.975 78.022 153.412 77.59C154.849 77.158 156.13 78.048 158.419 78.048C158.51 78.0487 158.602 78.0564 158.692 78.071L159.913 78.14C159.913 78.14 164.869 94.699 162.646 100.24H152.566C152.082 101.423 151.526 102.576 150.901 103.691L148.167 103.682Z" fill="#E8CA6F"/>
<path d="M156.333 100.231H152.566C153.257 98.595 154.019 96.575 154.831 94.226C154.949 96.3026 155.458 98.3383 156.331 100.226L156.333 100.231Z" fill="black"/>
</g>
<g clip-path="url(#clip4)">
<path d="M313.748 120.183L315.125 113.853C314.722 113.426 314.409 112.923 314.203 112.374C313.997 111.824 313.902 111.239 313.925 110.653C314.174 107.135 319.139 107.909 320.105 109.683C321.071 111.457 320.956 115.962 319.705 116.283C318.76 116.294 317.837 116.006 317.067 115.458L317.748 120.183H313.748Z" fill="#B28B67"/>
<path d="M318.108 107.862C317.569 107.774 316.119 107.714 315.852 107.714C315.681 107.714 315.496 107.753 315.395 107.597C315.312 107.469 315.342 107.254 315.318 107.106C315.289 106.934 315.248 106.764 315.207 106.595C315.092 106.115 314.909 105.653 314.664 105.225C314.209 104.418 313.502 103.783 312.652 103.417C311.683 103.035 310.636 102.892 309.6 103C308.531 103.136 307.483 103.4 306.477 103.785C305.497 104.121 304.452 104.221 303.427 104.077C302.45 103.85 301.53 103.425 300.723 102.829C299.838 102.252 298.795 101.966 297.739 102.012C296.759 102.116 295.823 102.468 295.018 103.036C294.245 103.5 293.633 104.19 293.263 105.013C293.051 105.451 292.962 105.939 293.005 106.424C293.049 106.909 293.223 107.373 293.51 107.767C294.027 108.299 294.659 108.707 295.356 108.96C296.054 109.212 296.8 109.304 297.538 109.227C298.353 109.208 299.161 109.061 299.93 108.791C300.923 108.371 301.886 107.883 302.812 107.329C303.262 107.095 303.734 106.908 304.221 106.769C304.442 106.68 304.68 106.642 304.918 106.657C305.156 106.673 305.387 106.742 305.594 106.86C306.021 107.178 306.486 107.442 306.978 107.646C307.478 107.831 308.006 107.925 308.539 107.924C309.575 107.846 310.6 107.664 311.6 107.381C312.423 107.15 313.285 107.089 314.133 107.2C314.482 107.27 314.991 107.415 315.117 107.775C312.996 108.157 312.164 110.76 312.761 112.675C313.084 113.706 315.023 114.912 315.777 114.37C316.255 114.026 315.965 113.575 315.777 113.278C315.418 112.708 315.295 111.978 315.96 111.578C316.534 111.236 317.137 112.049 317.148 112.048C318.093 111.598 318.931 110.953 319.607 110.154C320.533 110.208 320.674 109.602 320.452 109.107C319.828 108.447 319.004 108.01 318.108 107.862V107.862Z" fill="#34495E"/>
<path d="M310.716 134.928C311.026 139.086 330.796 151.344 330.912 151.687C330.989 151.916 324.748 166.168 324.748 166.168L326.478 166.837C326.478 166.837 336.046 151.745 335.555 150.136C334.851 147.831 320.214 134.978 320.214 134.978L310.716 134.928Z" fill="#B28B67"/>
<path d="M310.716 134.928C311.026 139.086 330.796 151.344 330.912 151.687C330.989 151.916 324.748 166.168 324.748 166.168L326.478 166.837C326.478 166.837 336.046 151.745 335.555 150.136C334.851 147.831 320.214 134.978 320.214 134.978L310.716 134.928Z" fill="black"/>
<path d="M325.205 164.02L328.03 165.043C333.986 158.378 336.321 152.878 335.897 150.075C335.472 147.272 320.61 134.943 320.61 134.943L310.513 134.938C310.853 144.571 329.183 151.723 329.429 152.134C329.675 152.544 327.259 156.564 325.205 164.02Z" fill="#34495E"/>
<path d="M324.694 165.303C324.663 165.278 324.627 165.259 324.588 165.249C324.55 165.238 324.51 165.235 324.47 165.241C324.43 165.246 324.392 165.26 324.358 165.281C324.324 165.301 324.294 165.329 324.271 165.362L323.66 166.215C323.543 166.595 323.45 166.982 323.38 167.373L331.2 170.22C331.2 170.22 331.877 169.306 331.251 168.986C330.625 168.665 330.212 168.443 330.212 168.443L327.178 165.47C327.164 165.456 327.147 165.445 327.128 165.437C327.109 165.43 327.089 165.426 327.069 165.427C327.048 165.428 327.029 165.432 327.01 165.441C326.992 165.45 326.976 165.462 326.962 165.477L326.519 165.968C326.153 166.005 325.784 165.981 325.426 165.897L324.694 165.303Z" fill="#34495E"/>
<path d="M312.983 134.925L304.172 155.925L295.513 173.672H297.556L319.913 134.925H312.983Z" fill="#B28B67"/>
<path d="M295.68 172.244C295.636 172.229 295.59 172.223 295.544 172.227C295.498 172.23 295.454 172.243 295.413 172.265C295.372 172.286 295.336 172.315 295.307 172.351C295.277 172.387 295.256 172.428 295.243 172.472L294.918 173.609C294.941 174.056 294.992 174.502 295.071 174.943H304.671C304.671 174.943 305.049 173.718 304.243 173.618C303.437 173.518 302.903 173.441 302.903 173.441L298.439 171.465C298.418 171.456 298.396 171.451 298.373 171.45C298.35 171.45 298.328 171.454 298.307 171.462C298.285 171.471 298.266 171.483 298.25 171.499C298.234 171.515 298.221 171.534 298.212 171.555L297.925 172.246C297.542 172.427 297.132 172.544 296.712 172.592L295.68 172.244Z" fill="#34495E"/>
<path d="M296.295 169.984L300.835 170.829C304.345 165.707 319.034 144.703 320.645 134.925H310.539C305.16 141.993 299.641 164.777 296.295 169.984Z" fill="#34495E"/>
<path d="M300.502 144.778C300.406 144.529 300.215 144.329 299.971 144.221C299.728 144.113 299.451 144.105 299.202 144.201C297.771 144.554 296.558 145.459 295.224 144.238C295.06 144.088 294.94 143.619 295.499 143.378C296.854 142.834 298.129 142.108 299.289 141.22C299.742 140.625 301.152 137.232 303.519 131.043L307.008 131.73C303.499 138.221 301.617 141.661 301.362 142.05C300.789 142.926 301.324 144.532 301.521 145.378C301.441 145.397 301.36 145.407 301.278 145.408C300.859 145.409 300.689 145.093 300.502 144.778ZM328.461 130.302L334.63 127.612C335.558 126.661 336.611 125.841 337.761 125.175C338.061 125.075 338.576 125.051 338.027 125.847C337.478 126.643 336.937 127.504 337.157 127.782C337.377 128.06 338.011 127.753 338.262 128.206C338.429 128.508 337.359 128.87 335.051 129.291L330.431 132.807L328.461 130.302Z" fill="#B28B67"/>
<path d="M316.491 118.084L317.963 117.835C321.169 120.925 322.479 128.337 324.616 129.319C326.636 130.247 329.5 129.344 332.903 128.136L333.946 130.448C330.854 133.77 324.265 136.577 321.593 134.975C317.324 132.413 316.34 123.266 316.491 118.084Z" fill="#E8CA6F"/>
<path d="M310.072 136.451H323.099C323.699 136.451 323.582 135.598 323.499 135.167C322.506 130.198 318.629 124.841 318.629 117.767L314.872 117.183C311.761 122.145 310.686 128.254 310.072 136.451Z" fill="#DDE3E9"/>
<path d="M299.346 141.159C301.105 130.33 306.198 122.338 314.627 117.183H316.115C316.115 117.183 321.175 134.305 318.905 140H307.178C307.413 137.092 307.95 134.217 308.778 131.42C306.87 135.045 304.627 138.484 302.078 141.691L299.346 141.159Z" fill="#E8CA6F"/>
</g>
</g>
<defs>
<clipPath id="clip0">
<rect width="366" height="366" fill="white"/>
</clipPath>
<clipPath id="clip1">
<rect width="393" height="299" fill="white" transform="translate(0 72)"/>
</clipPath>
<clipPath id="clip2">
<rect width="46.843" height="78.278" fill="white" transform="translate(36 46)"/>
</clipPath>
<clipPath id="clip3">
<rect width="56" height="58.453" fill="white" transform="translate(137 68)"/>
</clipPath>
<clipPath id="clip4">
<rect width="47.04" height="72.944" fill="white" transform="translate(293 102)"/>
</clipPath>
</defs>
</svg>
